<svg width="60" height="60" viewBox="0 0 60 60" fill="none" xmlns="http://www.w3.org/2000/svg">
<path d="M15.1377 35.693C16.035 32.44 17.9748 29.5713 20.6595 27.5269C23.3442 25.4825 26.6255 24.3754 30 24.3754C33.3744 24.3754 36.6557 25.4825 39.3404 27.5269C42.0251 29.5713 43.9649 32.44 44.8623 35.693L47.0007 43.4449C47.3847 44.8368 47.4419 46.2985 47.1681 47.7161C46.8942 49.1338 46.2967 50.469 45.4219 51.6177C44.5472 52.7664 43.419 53.6975 42.1252 54.3385C40.8315 54.9795 39.4072 55.313 37.9633 55.313H22.0366C20.5928 55.313 19.1684 54.9795 17.8747 54.3385C16.5809 53.6975 15.4527 52.7664 14.578 51.6177C13.7033 50.469 13.1057 49.1338 12.8318 47.7161C12.558 46.2985 12.6153 44.8368 12.9992 43.4449L15.1377 35.693ZM17.5613 49.3453C18.0839 50.0371 18.7603 50.5976 19.5371 50.9826C20.3139 51.3675 21.1697 51.5662 22.0366 51.563H37.9633C38.8296 51.563 39.6842 51.3629 40.4605 50.9783C41.2368 50.5937 41.9137 50.035 42.4386 49.3458C42.9634 48.6566 43.322 47.8554 43.4863 47.0049C43.6506 46.1543 43.6162 45.2772 43.3858 44.4421L41.2474 36.6903C40.5683 34.2285 39.1003 32.0575 37.0686 30.5104C35.0369 28.9633 32.5537 28.1255 30 28.1255C27.4463 28.1255 24.9631 28.9633 22.9314 30.5104C20.8997 32.0575 19.4316 34.2285 18.7525 36.6903L16.6141 44.4421C16.3804 45.2769 16.3443 46.1546 16.5087 47.0058C16.6732 47.8569 17.0335 48.6581 17.5613 49.3458V49.3453ZM42.8789 26.9899C42.5526 24.9509 42.9853 22.768 44.0976 20.8419C45.21 18.9158 46.8843 17.4497 48.8129 16.7127C50.8782 15.9239 52.9848 16.0496 54.7466 17.0663C58.2489 19.0885 59.1706 24.0723 56.8007 28.1762C55.6888 30.1023 54.0143 31.5688 52.0857 32.3055C51.2314 32.6384 50.3233 32.812 49.4064 32.8177C48.2642 32.8218 47.1412 32.523 46.152 31.9518C44.3913 30.9349 43.2288 29.1728 42.8789 26.9899ZM46.582 26.3972C46.7496 27.4436 47.2629 28.2628 48.0273 28.7042C48.7917 29.1455 49.7578 29.1802 50.748 28.8022C51.8745 28.3721 52.8709 27.4838 53.5536 26.3012C54.8661 24.0278 54.5541 21.2856 52.8716 20.3139C52.4486 20.0739 51.9696 19.9502 51.4832 19.9555C51.0271 19.9603 50.5756 20.0483 50.1511 20.2153C49.0245 20.6458 48.0282 21.5339 47.3455 22.7165C46.6627 23.899 46.3917 25.2065 46.582 26.3972ZM42.4727 19.2212C41.1412 20.2856 39.6207 20.8399 38.0831 20.8398C37.6225 20.8397 37.1633 20.7901 36.7133 20.6921C32.7614 19.833 30.3652 15.3667 31.3719 10.736C31.8441 8.56268 32.9923 6.65592 34.6048 5.36674C36.3316 3.98627 38.377 3.46373 40.3643 3.89592C44.3161 4.75491 46.7122 9.22116 45.7057 13.8518C45.2333 16.0253 44.0851 17.9321 42.4727 19.2212ZM39.5679 7.56037C39.3856 7.52108 39.1997 7.50144 39.0133 7.50178C38.3163 7.50178 37.5993 7.77448 36.9465 8.29643C36.0047 9.04936 35.3263 10.1989 35.0363 11.5333C34.4785 14.0991 35.6113 16.6155 37.5098 17.0282C38.3724 17.2157 39.3034 16.9546 40.1309 16.2928C41.0728 15.5398 41.7512 14.3903 42.0411 13.056C42.599 10.4895 41.4663 7.97311 39.5679 7.56037ZM5.25336 17.0663C7.01446 16.0496 9.12207 15.9239 11.187 16.7127C13.1156 17.4495 14.7901 18.9158 15.9021 20.8419C17.0141 22.768 17.4468 24.9514 17.1208 26.9899C16.7714 29.1728 15.6091 30.9349 13.8477 31.9518C12.8585 32.5231 11.7355 32.8219 10.5932 32.8177C9.67637 32.812 8.76829 32.6384 7.91399 32.3055C5.98543 31.5688 4.31094 30.1023 3.19895 28.1762C0.8293 24.0723 1.75098 19.0885 5.25336 17.0663ZM6.44633 26.3012C7.12907 27.4838 8.12539 28.3721 9.25192 28.8022C10.2417 29.1805 11.208 29.1457 11.9724 28.7042C12.7368 28.2626 13.2498 27.4436 13.4177 26.3972C13.6082 25.2065 13.3373 23.8995 12.6545 22.7175C11.9716 21.5356 10.9754 20.6468 9.84887 20.2164C9.42437 20.0492 8.97289 19.961 8.51668 19.9561C8.03037 19.9508 7.55134 20.0744 7.12836 20.3145C5.44579 21.2854 5.13348 24.0272 6.44633 26.3012ZM23.2866 20.6921C22.8366 20.7901 22.3774 20.8397 21.9168 20.8398C20.3793 20.8398 18.8582 20.2856 17.5272 19.2212C15.9148 17.9322 14.7666 16.0253 14.2943 13.8519C13.2877 9.22127 15.6839 4.75502 19.6357 3.89604C21.6228 3.46409 23.6683 3.98627 25.3951 5.36686C27.0076 6.65592 28.1558 8.5628 28.628 10.736C29.6347 15.3667 27.2386 19.833 23.2866 20.6921ZM24.9636 11.5327C24.6737 10.1983 23.9953 9.0483 23.0534 8.29584C22.4005 7.77389 21.6836 7.50119 20.9866 7.50119C20.8002 7.50085 20.6143 7.5205 20.4321 7.55979C18.5336 7.97252 17.4009 10.4895 17.9586 13.0547C18.2488 14.3891 18.9272 15.5391 19.8688 16.2917C20.6962 16.9533 21.6266 17.2144 22.4899 17.027C24.3887 16.6149 25.5214 14.0981 24.9636 11.5327Z" fill="black" fill-opacity="0.6"/>
</svg>
