<svg id="Layer_1" data-name="Layer 1" xmlns="http://www.w3.org/2000/svg" viewBox="0 0 387.3 144.54">
    <defs>
        <style>.cls-1{fill:currentColor;}</style>
    </defs>
    <path class="cls-1" d="M3.61,22.46l-1-7A549.57,549.57,0,0,0,63.87,0L83.2,15.53a288.06,288.06,0,0,1-30.37,4.78l-.19,5.08,31.05-1.27v16.5L52.25,42.38l-.1,5.28,32-1.76-.29,17.38-32.23,2-.1,4.4,36.33-2.44L85.55,88.38l-56.74.68L28.52,66.8.39,68.55,0,50.49l28.22-1.56V43.65L1.27,45.12.68,27.54l27.25-1.08V22.07q-11.71.49-24.32.39v0Z"/>
    <path class="cls-1" d="M99.51,22.56,99.22,2.64h34.67q-.39,21.48-9.57,29.78v4.79c2-.33,4.13-.69,6.34-1.08l.39,4.59q-3.42,3.42-6.73,6.35V85.74L108.2,89.65l-7.52-19.53,7-.88-.19-11a43.39,43.39,0,0,1-8,2.84L97.36,38.57a40.17,40.17,0,0,0,9.87.49L107,28.32l8.11,1.76,2.15-8.6ZM134.57,8.89,150,8.79V.88l20,.29-.1,7.62,16.51-.1V26.86L165,27.15,178.42,37.4Q162.1,62.69,130.47,73.24l-2.54-5.47a104.33,104.33,0,0,0,15.14-12.4L132.52,43.26,135,37.89c1.24.2,2.44.42,3.61.68l2-11-5.37.1Zm42.48,35.84L187.3,58.89a55,55,0,0,1-8.59,10.54,32,32,0,0,1,11,7.52l-12.21,14q-4.11-6.65-9.18-13.58Q154.29,86,133.2,89.26l-1.36-5.86Q162.11,68.16,177.05,44.73Zm-12.3-17.58-7,.1a29.58,29.58,0,0,1-8.1,13.86q2.44.8,4.69,1.57a138.78,138.78,0,0,0,10.45-15.53v0Z"/>
    <path class="cls-1" d="M201.86,68.65l-3.23-5.37Q218,40.63,222.17,23.63l-22.85.3.09-20.61,86.23-.59L285,22.66l-33.3.48a85.24,85.24,0,0,1-12.6,20.22l15.14,1.17-4.1-5.17,4.29-4.79q15,1.86,33.7,14.55L272.46,67.77,254.88,45.41V88.48L231.93,89l-.19-37.59q-12,11.42-29.88,17.28v0Z"/>
    <path class="cls-1" d="M301.27,2.34l39.16-.68-.29,34.67,5.76.39-.2-34.38,39.16-.68-.29,35-13.09.29,7,6.25h7.32L385.64,63l-29.78-.1Q367.58,68.76,387.3,70l-10.74,20.6q-21.78-3.21-33.79-24.21-13.08,18.95-41.11,23l-2-8.4q14-6.45,21.38-18.17l-21.38-.09V43.65l28.71-.19a64,64,0,0,0,.88-6.35l-27.84.29ZM324.9,17.19h-8.4v5.27h8.4ZM353.32,37.3a59.73,59.73,0,0,1-1.07,6.06l8.88-.1L358,37.11l-5.28.19h.59v0Zm16-20.11h-8.4v5.27h8.4Z"/>
    <path class="cls-1" d="M24.72,106.66v5.76h8.93v6H24.72v17.72H15.84V97.74h22v8.92Z"/>
    <path class="cls-1" d="M58.3,136.14l-2.55-2.45-.84,1a4.78,4.78,0,0,1-1.23,1,7.85,7.85,0,0,1-1.88.72,11,11,0,0,1-2.7.29,8.06,8.06,0,0,1-3.51-.77,7.77,7.77,0,0,1-2.74-2.21,10.79,10.79,0,0,1-1.79-3.5,15.62,15.62,0,0,1-.65-4.66V105.75h8.88v19.73A1.9,1.9,0,0,0,50,127a2.43,2.43,0,0,0,1.62.6,2.22,2.22,0,0,0,1.6-.6,2.06,2.06,0,0,0,.63-1.56V105.75h9v30.39Z"/>
    <path class="cls-1" d="M81.45,116.41a2.11,2.11,0,0,0-.68-1.61,2.24,2.24,0,0,0-1.6-.65,2.27,2.27,0,0,0-1.6.65,2.12,2.12,0,0,0-.68,1.6v19.74H68V105.75h4.52l2.54,2.4c.22-.29.5-.61.82-1a5,5,0,0,1,1.24-1,7.85,7.85,0,0,1,1.88-.72,10.81,10.81,0,0,1,2.68-.29,5.62,5.62,0,0,1,2.21.41A6.73,6.73,0,0,1,85.82,107v9.45Z"/>
    <path class="cls-1" d="M104.3,136.14l-4.41-12.77v12.77H91V97.74h8.88l0,10.48c.26-.32.52-.66.8-1a5.14,5.14,0,0,1,1-1,5,5,0,0,1,1.51-.72,8,8,0,0,1,2.28-.27,7.24,7.24,0,0,1,3,.65,8.06,8.06,0,0,1,2.54,1.8,8.6,8.6,0,0,1,1.75,2.79,9.79,9.79,0,0,1,.65,3.64,7.33,7.33,0,0,1-.41,2.48,8,8,0,0,1-1,2,9.36,9.36,0,0,1-1.49,1.59,13.43,13.43,0,0,1-1.75,1.22l5,14.74Zm.1-19.78a2.1,2.1,0,0,0-.66-1.56,2.15,2.15,0,0,0-1.57-.65,2.28,2.28,0,0,0-1.61.65,2.07,2.07,0,0,0-.67,1.56v2.21h1.84a2.86,2.86,0,0,0,1.92-.65A2,2,0,0,0,104.4,116.36Z"/>
    <path class="cls-1" d="M127,102.25h-8.89V97.74H127Zm0,33.89h-8.89V105.75H127Z"/>
    <path class="cls-1" d="M150.27,136.14l-2.6-2.5-.87,1a5.15,5.15,0,0,1-1.23,1,7.59,7.59,0,0,1-1.88.74,10.2,10.2,0,0,1-2.72.32,7.69,7.69,0,0,1-3.51-.82,8.38,8.38,0,0,1-2.77-2.28,10.7,10.7,0,0,1-1.81-3.55,15.81,15.81,0,0,1-.64-4.68v-8.93a19.59,19.59,0,0,1,.4-3.91,12.63,12.63,0,0,1,1.32-3.6,8,8,0,0,1,2.36-2.62,6,6,0,0,1,3.5-1,10,10,0,0,1,2.21.22,5.3,5.3,0,0,1,1.56.63,5.74,5.74,0,0,1,1.13.92c.32.33.64.7,1,1.08V97.74h9v38.4Zm-4.59-19.79a2.08,2.08,0,0,0-.68-1.55,2.27,2.27,0,0,0-1.6-.65,2.24,2.24,0,0,0-1.63.65,2.09,2.09,0,0,0-.65,1.55v9a2.06,2.06,0,0,0,.65,1.58,2.26,2.26,0,0,0,1.63.62A2.35,2.35,0,0,0,145,127a1.93,1.93,0,0,0,.68-1.51Z"/>
    <path class="cls-1" d="M190.35,136.14l-2.6-2.5-.87,1a5.15,5.15,0,0,1-1.23,1,7.59,7.59,0,0,1-1.88.74,10.2,10.2,0,0,1-2.72.32,7.69,7.69,0,0,1-3.51-.82,8.38,8.38,0,0,1-2.77-2.28A10.7,10.7,0,0,1,173,130a15.81,15.81,0,0,1-.64-4.68v-8.93a19.59,19.59,0,0,1,.4-3.91,12.63,12.63,0,0,1,1.32-3.6,8,8,0,0,1,2.36-2.62,6,6,0,0,1,3.5-1,10,10,0,0,1,2.21.22,5.3,5.3,0,0,1,1.56.63,5.74,5.74,0,0,1,1.13.92c.32.33.64.7,1,1.08V97.74h9v38.4Zm-4.59-19.79a2.08,2.08,0,0,0-.68-1.55,2.27,2.27,0,0,0-1.6-.65,2.24,2.24,0,0,0-1.63.65,2.09,2.09,0,0,0-.65,1.55v9a2.06,2.06,0,0,0,.65,1.58,2.26,2.26,0,0,0,1.63.62,2.35,2.35,0,0,0,1.6-.59,1.93,1.93,0,0,0,.68-1.51Z"/>
    <path class="cls-1" d="M222.33,125.34a11.32,11.32,0,0,1-3.24,8,11.13,11.13,0,0,1-3.53,2.43,10.72,10.72,0,0,1-4.36.89,11,11,0,0,1-4.4-.89,11.3,11.3,0,0,1-3.57-2.43,11.47,11.47,0,0,1-2.43-3.57,10.93,10.93,0,0,1-.88-4.39v-8.88a10.94,10.94,0,0,1,.88-4.37,11.18,11.18,0,0,1,2.43-3.58,11.56,11.56,0,0,1,3.57-2.4,11,11,0,0,1,4.4-.89,10.8,10.8,0,0,1,4.34.89,11.35,11.35,0,0,1,3.55,2.4,11,11,0,0,1,2.38,3.58,11.28,11.28,0,0,1,.86,4.37Zm-9-8.94a2.14,2.14,0,0,0-.66-1.6,2.17,2.17,0,0,0-1.58-.65,2.34,2.34,0,0,0-1.65.65,2.11,2.11,0,0,0-.67,1.6v8.9a2.13,2.13,0,0,0,.67,1.6,2.27,2.27,0,0,0,1.61.64,2.22,2.22,0,0,0,1.62-.64,2.16,2.16,0,0,0,.66-1.6Z"/>
    <path class="cls-1" d="M241,136.14V116.31a2,2,0,0,0-.68-1.56,2.43,2.43,0,0,0-1.65-.6,2.23,2.23,0,0,0-1.58.62,2,2,0,0,0-.65,1.54v19.83h-8.88V105.75H232l2.54,2.4c.23-.29.5-.61.82-1a5.09,5.09,0,0,1,1.22-1,7.29,7.29,0,0,1,1.85-.72,10.9,10.9,0,0,1,2.69-.29,8.14,8.14,0,0,1,3.53.77,8,8,0,0,1,2.78,2.21,10.46,10.46,0,0,1,1.82,3.5,15.3,15.3,0,0,1,.65,4.66v19.78Z"/>
    <path class="cls-1" d="M263.61,106.81a5.09,5.09,0,0,1-1.05,1.61A4.79,4.79,0,0,1,261,109.5a5,5,0,0,1-1.91.38h-1.63v-4.42h.67a1.39,1.39,0,0,0,1-.4,1.37,1.37,0,0,0,.41-1v-.33h-4.45v-6H264v7.15A4.85,4.85,0,0,1,263.61,106.81Z"/>
    <path class="cls-1" d="M283.63,134.74a4.69,4.69,0,0,1-1,.94,5.2,5.2,0,0,1-1.46.67,7.56,7.56,0,0,1-2.21.27A7.83,7.83,0,0,1,276,136a7.35,7.35,0,0,1-2.5-1.68,8.47,8.47,0,0,1-1.72-2.66,9.33,9.33,0,0,1-.65-3.58V110.26h-3.51v-4.51h3.51v-8h9v8h3.46v4.51h-3.46V127a2.1,2.1,0,0,0,.65,1.58,2.23,2.23,0,0,0,1.61.63h2.16v4.46Z"/>
    <path class="cls-1" d="M322.89,127.74a7.06,7.06,0,0,1-.94,3.62,8.83,8.83,0,0,1-2.47,2.77,11.85,11.85,0,0,1-3.55,1.79,13.74,13.74,0,0,1-4.22.65,10.9,10.9,0,0,1-4.36-.89,11.06,11.06,0,0,1-5.94-6,11,11,0,0,1-.89-4.41V116.5a11.07,11.07,0,0,1,.89-4.41,11.06,11.06,0,0,1,5.94-6,10.9,10.9,0,0,1,4.36-.89,13.46,13.46,0,0,1,4.22.66,11.66,11.66,0,0,1,3.55,1.81,9,9,0,0,1,2.47,2.79,7.24,7.24,0,0,1,.94,3.67,11,11,0,0,1-.07,1.3,5.09,5.09,0,0,1-.27,1.15h-8.73v-.34a2,2,0,0,0-.65-1.51,2.33,2.33,0,0,0-3.12,0,2,2,0,0,0-.65,1.51v9.27a2,2,0,0,0,.65,1.51,2.21,2.21,0,0,0,1.56.6,2.24,2.24,0,0,0,1.56-.58,1.94,1.94,0,0,0,.65-1.53v-.15h8.73a4.27,4.27,0,0,1,.27,1.08A10.4,10.4,0,0,1,322.89,127.74Z"/>
    <path class="cls-1" d="M341.56,116.41a2.11,2.11,0,0,0-.68-1.61,2.29,2.29,0,0,0-3.2,0,2.12,2.12,0,0,0-.68,1.6v19.74h-8.88V105.75h4.51l2.55,2.4q.33-.44.81-1a5.09,5.09,0,0,1,1.25-1,7.77,7.77,0,0,1,1.87-.72,11,11,0,0,1,2.69-.29,5.66,5.66,0,0,1,2.21.41,6.73,6.73,0,0,1,1.92,1.33v9.45Z"/>
    <path class="cls-1" d="M364.41,138a9,9,0,0,1-1.06,2.74,8.42,8.42,0,0,1-1.72,2.06,7.37,7.37,0,0,1-4.76,1.78,7.49,7.49,0,0,1-2.2-.27,5.57,5.57,0,0,1-1.47-.67,4.93,4.93,0,0,1-1-.95l-.91-1.11v-5.93h2.21a2.81,2.81,0,0,0,1.6-.46,1.65,1.65,0,0,0,.7-1.51L349,105.75h9.22L360,120.68l2.21-14.93h9.22Z"/>
</svg>